<?xml version="1.0" encoding="utf-8"?>
<!-- Generator: Adobe Illustrator 16.0.0, SVG Export Plug-In . SVG Version: 6.00 Build 0)  -->
<!DOCTYPE svg PUBLIC "-//W3C//DTD SVG 1.1//EN" "http://www.w3.org/Graphics/SVG/1.1/DTD/svg11.dtd">
<svg version="1.1" id="Шар_1" xmlns="http://www.w3.org/2000/svg" xmlns:xlink="http://www.w3.org/1999/xlink" x="0px" y="0px"
	 width="100.113px" height="100.114px" viewBox="0 0 100.113 100.114" enable-background="new 0 0 100.113 100.114"
	 xml:space="preserve">
<g>
	<defs>
		<rect id="SVGID_1_" width="100.113" height="100.114"/>
	</defs>
	<clipPath id="SVGID_2_">
		<use xlink:href="#SVGID_1_"  overflow="visible"/>
	</clipPath>
	<path clip-path="url(#SVGID_2_)" fill="#1FAC4F" d="M93.402,24.93c-4.477-7.668-10.547-13.738-18.219-18.215
		C67.516,2.239,59.141,0,50.059,0c-9.082,0-17.457,2.239-25.125,6.715C17.262,11.188,11.191,17.262,6.715,24.93
		C2.238,32.602,0,40.977,0,50.059c0,9.079,2.238,17.454,6.715,25.125c4.476,7.668,10.547,13.741,18.215,18.215
		c7.672,4.476,16.047,6.715,25.128,6.715c9.082,0,17.457-2.239,25.125-6.715c7.668-4.474,13.742-10.547,18.219-18.215
		c4.473-7.672,6.711-16.047,6.711-25.125C100.113,40.977,97.875,32.598,93.402,24.93 M82.516,52.925l-5.93,5.931
		c-0.824,0.824-1.805,1.238-2.934,1.238s-2.109-0.414-2.934-1.238L58.402,46.539v32.719c0,1.13-0.414,2.106-1.238,2.935
		c-0.828,0.824-1.805,1.238-2.934,1.238h-8.343c-1.129,0-2.11-0.414-2.934-1.238c-0.824-0.828-1.238-1.805-1.238-2.935V46.539
		L29.398,58.856c-0.785,0.781-1.761,1.172-2.933,1.172c-1.176,0-2.153-0.391-2.934-1.172l-5.933-5.931
		c-0.782-0.784-1.172-1.762-1.172-2.933c0-1.172,0.39-2.153,1.172-2.934l23.597-23.594l5.93-5.933
		c0.781-0.782,1.762-1.172,2.934-1.172c1.172,0,2.148,0.39,2.934,1.172l5.93,5.933l23.594,23.594
		c0.785,0.781,1.176,1.762,1.176,2.934C83.691,51.164,83.301,52.141,82.516,52.925"/>
</g>
</svg>
