<?xml version="1.0" encoding="utf-8"?>
<!-- Generator: Adobe Illustrator 16.0.0, SVG Export Plug-In . SVG Version: 6.00 Build 0)  -->
<!DOCTYPE svg PUBLIC "-//W3C//DTD SVG 1.1//EN" "http://www.w3.org/Graphics/SVG/1.1/DTD/svg11.dtd">
<svg version="1.1" id="Шар_1" xmlns="http://www.w3.org/2000/svg" xmlns:xlink="http://www.w3.org/1999/xlink" x="0px" y="0px"
	 width="24.96px" height="23px" viewBox="0 0 24.96 23" enable-background="new 0 0 24.96 23" xml:space="preserve" style="fill: #00a1eb;">
<g>
	<defs>
		<rect id="SVGID_1_" width="24.96" height="23"/>
	</defs>
	<clipPath id="SVGID_2_">
		<use xlink:href="#SVGID_1_"  overflow="visible"/>
	</clipPath>
	<path clip-path="url(#SVGID_2_)" fill-rule="evenodd" clip-rule="evenodd" d="M18.051,9.051c0,0,0.98-0.746,0.234-1.492
		c-0.75-0.747-1.476,0.214-1.476,0.214l-7.508,7.516c0,0-1.762,2.27-3.098,0.895c-1.336-1.372,0.895-3.098,0.895-3.098l9.851-9.848
		c0,0,2.297-2.531,4.457-0.371c2.16,2.16-0.379,4.461-0.379,4.461L9.961,18.395c0,0-3.543,4.094-6.82,0.813
		c-3.278-3.277,0.851-6.777,0.851-6.777l8.403-8.407c0,0,0.94-0.785,0.237-1.492c-0.711-0.707-1.492,0.239-1.492,0.239L1.5,12.41
		c0,0-3.641,3.988,0.422,8.055c4.066,4.063,8.058,0.426,8.058,0.426L23.23,7.637c0,0,2.652-2.922-0.508-6.086
		c-3.16-3.16-6.086-0.512-6.086-0.512L5.234,12.441c0,0-2.918,2.375-0.269,5.024c2.648,2.648,4.98-0.313,4.98-0.313L18.051,9.051z"
		/>
</g>
</svg>
