<?xml version="1.0" encoding="utf-8"?>
<!-- Generator: Adobe Illustrator 16.0.0, SVG Export Plug-In . SVG Version: 6.00 Build 0)  -->
<!DOCTYPE svg PUBLIC "-//W3C//DTD SVG 1.1//EN" "http://www.w3.org/Graphics/SVG/1.1/DTD/svg11.dtd">
<svg version="1.1" id="Шар_1" xmlns="http://www.w3.org/2000/svg" xmlns:xlink="http://www.w3.org/1999/xlink" x="0px" y="0px"
	 width="468.293px" height="468.293px" viewBox="0 0 468.293 468.293" enable-background="new 0 0 468.293 468.293"
	 xml:space="preserve">
<g>
	<defs>
		<rect id="SVGID_1_" width="468.293" height="468.293"/>
	</defs>
	<clipPath id="SVGID_2_">
		<use xlink:href="#SVGID_1_"  overflow="visible"/>
	</clipPath>
	<path clip-path="url(#SVGID_2_)" fill="#B9BCBD" d="M234.146,0C104.897,0,0,104.897,0,234.146s104.897,234.146,234.146,234.146
		s234.146-104.897,234.146-234.146S363.396,0,234.146,0 M66.186,234.146c0-93.034,75.551-168.585,167.961-168.585
		c34.966,0,68.059,10.614,94.907,29.346L95.531,329.054C76.8,302.205,66.186,269.112,66.186,234.146 M234.146,402.107
		c-34.966,0-68.059-10.615-94.907-29.346L372.762,139.24c18.73,26.848,29.346,59.941,29.346,94.907
		C402.107,327.181,327.181,402.107,234.146,402.107"/>
</g>
</svg>
