<?xml version="1.0" encoding="iso-8859-1"?>
<!-- Generator: Adobe Illustrator 19.0.0, SVG Export Plug-In . SVG Version: 6.00 Build 0)  -->
<svg xmlns="http://www.w3.org/2000/svg" xmlns:xlink="http://www.w3.org/1999/xlink" version="1.1" id="Capa_1" x="0px" y="0px" viewBox="0 0 488 488" style="enable-background:new 0 0 488 488;" xml:space="preserve" width="512px" height="512px">
<g>
	<g>
		<g>
			<path d="M244,64c4.418,0,8-3.582,8-8V8c0-4.418-3.582-8-8-8s-8,3.582-8,8v48C236,60.418,239.582,64,244,64z" fill="#dca353"/>
			<path d="M165.072,79.296c2.184,3.841,7.068,5.184,10.909,3c3.841-2.184,5.184-7.068,3-10.909     c-0.017-0.031-0.035-0.061-0.053-0.092l-24-41.6c-2.234-3.812-7.136-5.09-10.947-2.856c-3.776,2.214-5.072,7.051-2.909,10.856     L165.072,79.296z" fill="#dca353"/>
			<path d="M73.72,110.928l41.6,24c3.812,2.234,8.713,0.956,10.947-2.856s0.956-8.713-2.856-10.947     c-0.03-0.018-0.061-0.035-0.091-0.053l-41.6-24c-3.841-2.184-8.725-0.841-10.909,3C68.648,103.877,69.944,108.714,73.72,110.928z     " fill="#dca353"/>
			<path d="M108,200c0-4.418-3.582-8-8-8H52c-4.418,0-8,3.582-8,8s3.582,8,8,8h48C104.418,208,108,204.418,108,200z" fill="#dca353"/>
			<path d="M115.389,265.018c-0.031,0.018-0.062,0.036-0.093,0.054l-41.6,24c-3.841,2.183-5.185,7.067-3.002,10.908     c2.183,3.841,7.067,5.185,10.908,3.002c0.031-0.018,0.062-0.036,0.093-0.054l41.6-24c3.841-2.183,5.185-7.067,3.002-10.908     C124.114,264.179,119.23,262.835,115.389,265.018z" fill="#dca353"/>
			<path d="M414.373,289.126c-0.031-0.018-0.062-0.036-0.093-0.054l-41.6-24c-3.811-2.235-8.713-0.957-10.948,2.854     s-0.957,8.713,2.854,10.948c0.031,0.018,0.062,0.036,0.093,0.054l41.6,24c3.811,2.235,8.713,0.957,10.948-2.854     S418.185,291.361,414.373,289.126z" fill="#dca353"/>
			<path d="M436,192h-48c-4.418,0-8,3.582-8,8s3.582,8,8,8h48c4.418,0,8-3.582,8-8S440.418,192,436,192z" fill="#dca353"/>
			<path d="M368.712,136c1.405,0.003,2.785-0.367,4-1.072l41.6-24c3.841-2.184,5.184-7.068,3-10.909s-7.068-5.184-10.909-3     c-0.031,0.017-0.061,0.035-0.092,0.053l-41.6,24c-3.826,2.209-5.137,7.102-2.928,10.928C363.213,134.475,365.854,136,368.712,136     z" fill="#dca353"/>
			<path d="M312,82.224c3.826,2.209,8.719,0.898,10.928-2.928l24-41.6c2.183-3.841,0.839-8.725-3.002-10.908     c-3.805-2.163-8.641-0.867-10.854,2.908l-24,41.6C306.863,75.122,308.174,80.015,312,82.224z" fill="#dca353"/>
			<path d="M350.176,144.008C329.414,104.613,288.531,79.967,244,80c-66.23-0.049-119.959,53.602-120.008,119.832     c-0.033,44.531,24.613,85.414,64.008,106.176V432c0,30.928,25.072,56,56,56c30.928,0,56-25.072,56-56V306.008     C358.591,275.129,381.055,202.599,350.176,144.008z M244,472c-19.002-0.021-35.375-13.387-39.2-32h78.4     C279.375,458.613,263.002,471.979,244,472z M337.97,244.47c-10.279,21.676-27.734,39.132-49.41,49.41v-0.024     c-2.778,1.323-4.551,4.123-4.56,7.2V344h-64c-4.418,0-8,3.582-8,8s3.582,8,8,8h64v64h-80v-32h64c4.418,0,8-3.582,8-8     s-3.582-8-8-8h-64v-48h64c4.418,0,8-3.582,8-8s-3.582-8-8-8h-64v-10.92c-0.009-3.077-1.782-5.877-4.56-7.2     c-51.898-24.61-74.02-86.632-49.41-138.53s86.632-74.02,138.53-49.41C340.458,130.549,362.58,192.571,337.97,244.47z" fill="#dca353"/>
			<path d="M220,128c-26.499,0.026-47.974,21.501-48,48c0,4.418,3.582,8,8,8s8-3.582,8-8c0-17.673,14.327-32,32-32     c4.418,0,8-3.582,8-8S224.418,128,220,128z" fill="#dca353"/>
		</g>
	</g>
</g>
<g>
</g>
<g>
</g>
<g>
</g>
<g>
</g>
<g>
</g>
<g>
</g>
<g>
</g>
<g>
</g>
<g>
</g>
<g>
</g>
<g>
</g>
<g>
</g>
<g>
</g>
<g>
</g>
<g>
</g>
</svg>
