<?xml version="1.0" encoding="utf-8"?>
<!-- Generator: Adobe Illustrator 16.0.0, SVG Export Plug-In . SVG Version: 6.00 Build 0)  -->
<!DOCTYPE svg PUBLIC "-//W3C//DTD SVG 1.1//EN" "http://www.w3.org/Graphics/SVG/1.1/DTD/svg11.dtd">
<svg version="1.1" id="Шар_1" xmlns="http://www.w3.org/2000/svg" xmlns:xlink="http://www.w3.org/1999/xlink" x="0px" y="0px"
	 width="512px" height="409.6px" viewBox="0 0 512 409.6" enable-background="new 0 0 512 409.6" xml:space="preserve">
<g>
	<defs>
		<rect id="SVGID_1_" width="512" height="409.6"/>
	</defs>
	<clipPath id="SVGID_2_">
		<use xlink:href="#SVGID_1_"  overflow="visible"/>
	</clipPath>
	<path clip-path="url(#SVGID_2_)" fill="#00a1eb" d="M256,153.6c-42.419,0-76.8,34.396-76.8,76.8
		c0,42.419,34.381,76.801,76.8,76.801c42.409,0,76.8-34.382,76.8-76.801C332.8,187.996,298.409,153.6,256,153.6 M460.8,76.8H399.36
		c-8.448,0-17.552-6.554-20.22-14.572l-15.882-47.662C360.581,6.553,351.488,0,343.04,0H168.96c-8.448,0-17.551,6.553-20.219,14.571
		l-15.882,47.662C130.181,70.246,121.088,76.8,112.64,76.8H51.2C23.04,76.8,0,99.84,0,128V358.4c0,28.16,23.04,51.2,51.2,51.2h409.6
		c28.16,0,51.2-23.04,51.2-51.2V128C512,99.84,488.96,76.8,460.8,76.8 M256,358.4c-70.692,0-128-57.308-128-128
		c0-70.687,57.308-128,128-128c70.682,0,128,57.313,128,128C384,301.092,326.682,358.4,256,358.4 M442.88,163.804
		c-9.892,0-17.92-8.018-17.92-17.92c0-9.892,8.028-17.92,17.92-17.92c9.902,0,17.92,8.028,17.92,17.92
		C460.8,155.786,452.777,163.804,442.88,163.804"/>
</g>
</svg>
