<?xml version="1.0" encoding="utf-8"?>
<!-- Generator: Adobe Illustrator 22.0.1, SVG Export Plug-In . SVG Version: 6.00 Build 0)  -->
<svg version="1.1" id="Слой_1" xmlns="http://www.w3.org/2000/svg" xmlns:xlink="http://www.w3.org/1999/xlink" x="0px" y="0px"
	 viewBox="0 0 18.7 18.7" style="enable-background:new 0 0 18.7 18.7;" xml:space="preserve">
<style type="text/css">
	.st0{clip-path:url(#SVGID_2_);fill:#b9bcbd;}
</style>
<g>
	<g>
		<defs>
			<rect id="SVGID_1_" y="0" width="19" height="19"/>
		</defs>
		<clipPath id="SVGID_2_">
			<use xlink:href="#SVGID_1_"  style="overflow:visible;"/>
		</clipPath>
		<path class="st0" d="M12.8,9.4l5.3-5.3c0.8-0.8,0.8-2,0-2.8l-0.7-0.7c-0.8-0.8-2-0.8-2.8,0L9.3,5.9L4.1,0.6c-0.8-0.8-2-0.8-2.8,0
			L0.6,1.3c-0.8,0.8-0.8,2,0,2.8l5.3,5.3l-5.3,5.3c-0.8,0.8-0.8,2,0,2.8l0.7,0.7c0.8,0.8,2,0.8,2.8,0l5.3-5.2l5.3,5.2
			c0.8,0.8,2,0.8,2.8,0l0.7-0.7c0.8-0.8,0.8-2,0-2.8L12.8,9.4z M12.8,9.4"/>
	</g>
</g>
</svg>
