<?xml version="1.0" encoding="utf-8"?>
<!-- Generator: Adobe Illustrator 22.0.1, SVG Export Plug-In . SVG Version: 6.00 Build 0)  -->
<svg version="1.1"
	 id="svg8" xmlns:cc="http://creativecommons.org/ns#" xmlns:dc="http://purl.org/dc/elements/1.1/" xmlns:rdf="http://www.w3.org/1999/02/22-rdf-syntax-ns#" xmlns:svg="http://www.w3.org/2000/svg"
	 xmlns="http://www.w3.org/2000/svg" xmlns:xlink="http://www.w3.org/1999/xlink" x="0px" y="0px" viewBox="0 0 668.9 518.8"
	 style="enable-background:new 0 0 668.9 518.8;" xml:space="preserve">
<g id="layer1" transform="translate(-13.984179,-57.032654)">
	<path style="fill: #00a1eb;" id="path32" d="M536.3,575c-0.5-0.8-37-28.4-81-61.3c-44-33-80.6-60.7-81.4-61.6c-1.2-1.5,0.4-3.4,14.5-17.9
		c30.4-31.1,54.1-60.8,71.8-90.2c5.7-9.4,16.7-31.2,19.1-37.6c11.4-31.3,14.5-46.6,14.5-71.5c0-16-2-36.5-5-50.9
		c-0.6-2.7-0.7-5.3-0.4-5.9c0.8-1.3,29.5-0.4,40.3,1.2c18.8,2.8,44.4,9.4,47.4,12.2c0.5,0.5,1.6,0.9,2.3,0.9c2,0,21.8,9.7,29.2,14.3
		c26.6,16.6,47.6,39.4,60,65.1c3.2,6.6,6.6,14.7,7.5,18c0.9,3.3,2.3,8,3,10.5c0.7,2.5,1.6,7.5,2,11.3c0.4,3.7,1.1,6.8,1.6,6.8
		c0.5,0,0.9,6.3,0.9,14s-0.4,14-0.8,14s-1.3,3.9-1.9,8.8c-4.2,33.5-26.2,68.5-57.7,91.9c-12.1,9-26.3,16.8-42.5,23.4
		c-10,4.1-31.1,9.9-35.7,9.9c-1.6,0-3.4,0.5-4.1,1.2c-0.9,0.9-1.2,12.7-1.2,46.7c0,25.1-0.4,46.1-0.8,46.8
		C537.5,576.1,537.1,576,536.3,575L536.3,575z M195.6,486.7l-0.3-59.7l-6.5-1.6c-3.6-0.9-9.8-2.4-13.8-3.4
		c-10.3-2.5-33.9-10.3-37.9-12.5c-1-0.5-6.2-3.1-11.7-5.7c-52.9-25-93.5-70.5-106.4-119.4c-3.9-14.7-4.4-18.7-4.9-35.7
		c-0.5-18.1,0.7-29.1,4.8-44.9c5.4-20.9,14.6-39.5,29.3-59.2c33.5-44.9,88.7-75.8,153.2-85.8c9.9-1.5,17.3-1.8,42-1.7
		c38.9,0.2,52.7,2.1,89,12.4c1.6,0.5,5.5,1.8,8.5,3c3,1.2,6.7,2.5,8.2,3c5.9,1.8,27.1,12.8,35.8,18.5c27.1,17.7,47,40.2,59.8,67.5
		c5.9,12.6,6.6,14.4,10,27c5,18.6,5.7,24.7,5.7,48c0,21.3-0.4,24.7-4.2,39.5c-8.8,34.2-30.6,71.5-65.3,112.3
		c-11.5,13.5-46.2,48.2-62,61.9c-23.4,20.4-54.3,44.6-84.8,66.4c-5.8,4.2-35.4,23.9-35.8,23.9c-0.2,0-2.3,1.3-4.8,3
		C195.2,549,195.9,553.8,195.6,486.7L195.6,486.7z M251.2,465c34.8-26.3,53.3-42.2,81.2-70.1c39.8-39.6,61-68.2,77.8-104.5
		c13.1-28.3,15.3-60.9,6.3-93.5c-10.1-36.7-38.3-68.8-76.2-86.6c-7.7-3.6-10.2-4.6-22.7-8.9c-7.2-2.5-23.8-6.7-29.8-7.5
		c-2.5-0.3-8.3-1.3-13-2.2c-12.7-2.3-53.2-2.2-66,0.1c-18.6,3.4-33.8,7.3-43.2,11c-3.6,1.4-6.8,2.6-7.2,2.6
		c-1.5,0-20.3,9.4-27.6,13.9c-20.1,12.1-43.4,33.8-54.6,50.7c-9.8,14.9-18,33.7-20.5,46.9c-0.5,2.7-1.4,7-1.9,9.5
		c-0.5,2.5-1,10.4-1,17.5C52.8,287.4,74,324,117.3,355c3.8,2.8,7.7,5.3,8.5,5.7c0.8,0.4,2.4,1.3,3.5,2c10.8,6.6,28.6,15.2,40,19.3
		c21.8,7.8,41.1,13.3,53,15c2.8,0.4,5.6,1.2,6.3,1.7c1,0.8,1.2,10.2,1.2,40.9c0,28.5,0.3,39.9,1.1,39.9
		C231.6,479.4,240.7,472.9,251.2,465L251.2,465z"/>
</g>
</svg>
