<?xml version="1.0" encoding="utf-8"?>
<!-- Generator: Adobe Illustrator 22.0.1, SVG Export Plug-In . SVG Version: 6.00 Build 0)  -->
<svg version="1.1" id="Layer_1" xmlns="http://www.w3.org/2000/svg" xmlns:xlink="http://www.w3.org/1999/xlink" x="0px" y="0px"
	 viewBox="-49 155.4 512 480.6" style="enable-background:new -49 155.4 512 480.6;" xml:space="preserve">
<style type="text/css">
	.st0{fill:#F7DA70;}
	.st1{opacity:0.1;enable-background:new    ;}
	.st2{fill:#7D7060;}
	.st3{opacity:8.000000e-02;enable-background:new    ;}
	.st4{fill:#4A5058;}
	.st5{fill:#EDBCB9;}
	.st6{fill:#F4B759;}
</style>
<path class="st0" d="M92.7,477.7C14.6,477.7-49,414.1-49,336c0-35.1,12.9-68.8,36.5-94.9c6.5-7.2,17.6-7.8,24.8-1.3
	s7.8,17.6,1.3,24.8c-17.7,19.6-27.4,45-27.4,71.4c0,58.8,47.8,106.6,106.6,106.6c9.7,0,17.5,7.9,17.5,17.5
	C110.2,469.8,102.4,477.7,92.7,477.7z"/>
<path class="st1" d="M92.7,442.6c-14,0-27.3-2.7-39.5-7.6c-11,6.3-20.4,15.3-27.1,26c19.9,10.6,42.6,16.7,66.6,16.7
	c9.7,0,17.5-7.9,17.5-17.5C110.2,450.4,102.4,442.6,92.7,442.6z"/>
<path class="st0" d="M272,636.1L272,636.1c-15.8,0-28.6-12.8-28.6-28.6V501.7h57.2v105.7C300.6,623.3,287.8,636.1,272,636.1z"/>
<path class="st2" d="M300.6,586.4c-21.1,0-38.2-17.1-38.2-38.2s17.1-38.2,38.2-38.2V586.4z"/>
<path class="st3" d="M272,636.1L272,636.1c-15.8,0-28.6-12.8-28.6-28.6V501.7h57.2v105.7C300.6,623.3,287.8,636.1,272,636.1z"/>
<path class="st0" d="M239.5,424.8H124c-42.5,0-76.9,34.4-76.9,76.9v105.7c0,15.8,12.8,28.6,28.6,28.6s28.6-12.8,28.6-28.6v-31.4
	c6.3,1.7,12.9,2.5,19.6,2.5h36.5v28.8c0,15.8,12.8,28.6,28.6,28.6l0,0c15.8,0,28.6-12.8,28.6-28.6v-28.9c48.2-0.8,87-40.1,87-88.5
	l0,0C304.8,454,275.6,424.8,239.5,424.8z"/>
<path class="st2" d="M47.5,494.4c-0.2,2.4-0.4,4.8-0.4,7.3v62.9c19.4,0,35.1-15.7,35.1-35.1C82.3,510.3,66.7,494.6,47.5,494.4z"/>
<path class="st3" d="M239.5,424.8H124c-20.4,0-38.9,8-52.7,20.9c22.1,39.9,66.9,67.7,119.5,67.7h110.7c2-7.5,3.2-15.3,3.2-23.4l0,0
	C304.8,454,275.6,424.8,239.5,424.8z"/>
<path class="st0" d="M416.1,159.1L416.1,159.1c-33.4,8.5-66,20-97.4,34.3c-17.4-4.6-35.8-7.1-54.7-7.1l0,0
	c-18.9,0-37.3,2.5-54.7,7.1c-31.4-14.3-64-25.8-97.4-34.3l0,0c-24.6-6.3-48.2,13.1-46.9,38.5l0,0c1.9,35.2,6.9,70.2,15.1,104.6
	c-5.9,13.8-10,28.5-12.2,43.8l0,0C57.5,420.3,120,486.2,201,486.2h125.9c80.9,0,143.5-65.9,133.1-140.2l0,0
	c-2.1-15.3-6.3-30-12.2-43.8c8.2-34.3,13.3-69.3,15.1-104.6l0,0C464.3,172.2,440.7,152.8,416.1,159.1z"/>
<g>
	<path class="st4" d="M182.4,334.2c-4.5,0-8.1-3.6-8.1-8.1v-13c0-4.5,3.6-8.1,8.1-8.1c4.5,0,8.1,3.6,8.1,8.1v13
		C190.5,330.5,186.9,334.2,182.4,334.2z"/>
	<path class="st4" d="M345.4,334.2c-4.5,0-8.1-3.6-8.1-8.1v-13c0-4.5,3.6-8.1,8.1-8.1s8.1,3.6,8.1,8.1v13
		C353.5,330.5,349.9,334.2,345.4,334.2z"/>
</g>
<path class="st5" d="M235.6,364.9V421c0,15.6,12.7,28.3,28.3,28.3c15.6,0,28.3-12.7,28.3-28.3v-56.1H235.6z"/>
<path class="st1" d="M263.9,423.4c-4.5,0-8.1-3.6-8.1-8.1v-46.4c0-4.5,3.6-8.1,8.1-8.1s8.1,3.6,8.1,8.1v46.4
	C272,419.7,268.4,423.4,263.9,423.4z"/>
<path class="st0" d="M311.2,404.9c-36.7,0-47.3-26.2-47.3-37.3c0,11.2-10.6,37.3-47.3,37.3l-22.7-65.5h140.1L311.2,404.9z"/>
<path class="st6" d="M404,200.3L404,200.3c-15.4,3.9-30.4,9.3-44.9,15.9c-6.8,3.1-8.6,11.9-3.7,17.5l0,0
	c13.2,15.1,28.8,27.9,46.2,37.9c6.5,3.7,14.7,0.2,16.5-7.1l0,0c3.7-15.5,6-31.2,6.9-47.1C425.5,206.1,415,197.5,404,200.3z"/>
<path class="st2" d="M111.7,159.1L111.7,159.1c-15.5-3.9-30.5,2.2-39.3,13.7c6.1,27.5,30.5,48.1,59.9,48.1c25,0,46.5-15,56-36.4
	C163.5,174.2,137.9,165.8,111.7,159.1z"/>
<path class="st6" d="M102.9,217.4L102.9,217.4c0.8,15.9,3.1,31.7,6.9,47.1l0,0c1.7,7.3,10,10.8,16.5,7.1l0,0
	c17.4-10,33-22.8,46.2-37.9l0,0c4.9-5.6,3.1-14.4-3.7-17.5l0,0c-14.4-6.7-29.5-12-44.9-15.9l0,0
	C112.8,197.5,102.3,206.1,102.9,217.4z"/>
<g>
	<path class="st4" d="M292.2,356.1l-6.6,7.8c-11.3,13.5-32.1,13.5-43.4,0l-6.6-7.8c-3.4-4-0.5-10.2,4.8-10.2h47.1
		C292.7,345.9,295.6,352.1,292.2,356.1z"/>
	<path class="st4" d="M121,385.1c-4.1,0-7.6-3-8.1-7.2c-0.5-4.5,2.6-8.5,7.1-9.1l45.5-5.5c4.5-0.5,8.5,2.6,9.1,7.1
		c0.5,4.5-2.6,8.5-7.1,9.1l-45.5,5.5C121.6,385,121.3,385.1,121,385.1z"/>
	<path class="st4" d="M139.7,432.9c-2.4,0-4.8-1.1-6.4-3.1c-2.8-3.5-2.2-8.7,1.4-11.4l36-28.3c3.5-2.8,8.7-2.2,11.4,1.4
		c2.8,3.5,2.2,8.7-1.4,11.4l-36,28.3C143.2,432.3,141.5,432.9,139.7,432.9z"/>
	<path class="st4" d="M406.8,385.1c-0.3,0-0.7,0-1-0.1l-45.5-5.5c-4.5-0.5-7.6-4.6-7.1-9.1c0.5-4.5,4.6-7.6,9.1-7.1l45.5,5.5
		c4.5,0.5,7.6,4.6,7.1,9.1C414.4,382,410.9,385.1,406.8,385.1z"/>
	<path class="st4" d="M388.1,432.9c-1.8,0-3.5-0.6-5-1.7l-36-28.3c-3.5-2.8-4.2-7.9-1.4-11.4c2.8-3.5,7.9-4.2,11.4-1.4l36,28.3
		c3.5,2.8,4.2,7.9,1.4,11.4C392.9,431.8,390.5,432.9,388.1,432.9z"/>
</g>
</svg>
