<?xml version="1.0" encoding="utf-8"?>
<!-- Generator: Adobe Illustrator 22.0.1, SVG Export Plug-In . SVG Version: 6.00 Build 0)  -->
<svg version="1.1" id="Layer_1" xmlns="http://www.w3.org/2000/svg" xmlns:xlink="http://www.w3.org/1999/xlink" x="0px" y="0px"
	 viewBox="75.9 141 262.4 512" style="enable-background:new 75.9 141 262.4 512;" xml:space="preserve">
<style type="text/css">
	.st0{fill:#B9BCBD;}
</style>
<path class="st0" d="M252.2,497.2L125.2,651.4c-0.9,1.1-2.2,1.6-3.5,1.6c-0.8,0-1.6-0.2-2.3-0.6c-1.9-1.1-2.7-3.5-1.9-5.6l59.1-156
	H116c-1.6,0-3.1-0.8-3.9-2.2c-0.8-1.4-0.9-3.1-0.1-4.5l65-123.9H80.6c-1.6,0-3.1-0.8-3.9-2.2c-0.8-1.4-0.9-3-0.2-4.5l108-210.1
	c0.8-1.5,2.3-2.5,4.1-2.5h68.9h30.1h34c1.6,0,3.1,0.9,4,2.3c0.8,1.4,0.8,3.2,0,4.6l-63.9,109.6h71.9c1.7,0,3.2,0.9,4,2.4
	c0.8,1.5,0.7,3.2-0.2,4.6l-92.1,144.3h70.2c1.8,0,3.4,1,4.1,2.6c0.8,1.6,0.5,3.5-0.6,4.8l-48.7,59.1"/>
<path class="st0" d="M111.9,484.1c-0.7,1.4-0.7,3.1,0.1,4.5c0.8,1.4,2.3,2.2,3.9,2.2h60.6l-59.1,156c-0.8,2.1,0,4.4,1.9,5.6
	c0.1,0.1,0.3,0.1,0.4,0.2l132.7-201.1h-68.4c-1.6,0-3.1-0.8-3.9-2.2c-0.8-1.4-0.9-3.1-0.1-4.5l65-123.9h-79.6
	c-1.6,0-3.1-0.8-3.9-2.2c-0.8-1.4-0.9-3-0.2-4.5l89-173.3h-61.9c-1.7,0-3.3,1-4.1,2.5l-108,210.1c-0.7,1.4-0.7,3.1,0.2,4.5
	c0.8,1.4,2.3,2.2,3.9,2.2h96.4L111.9,484.1z"/>
</svg>
