<?xml version="1.0" encoding="utf-8"?>
<!-- Generator: Adobe Illustrator 16.0.0, SVG Export Plug-In . SVG Version: 6.00 Build 0)  -->
<!DOCTYPE svg PUBLIC "-//W3C//DTD SVG 1.1//EN" "http://www.w3.org/Graphics/SVG/1.1/DTD/svg11.dtd">
<svg version="1.1" id="Шар_1" xmlns="http://www.w3.org/2000/svg" xmlns:xlink="http://www.w3.org/1999/xlink" x="0px" y="0px"
	 width="276.668px" height="140.25px" viewBox="0 0 276.668 140.25" enable-background="new 0 0 276.668 140.25"
	 xml:space="preserve" style="fill: #00a1eb;">
<g>
	<defs>
		<rect id="SVGID_1_" width="276.668" height="140.25"/>
	</defs>
	<clipPath id="SVGID_2_">
		<use xlink:href="#SVGID_1_"  overflow="visible"/>
	</clipPath>
	<path clip-path="url(#SVGID_2_)" d="M271.84,140.136c0.102-0.022,0.203-0.05,0.305-0.078c0.09-0.019,0.176-0.039,0.262-0.065
		c0.102-0.031,0.199-0.067,0.297-0.103c0.086-0.03,0.172-0.058,0.258-0.097c0.094-0.036,0.18-0.082,0.27-0.125
		c0.09-0.04,0.176-0.079,0.262-0.125c0.086-0.047,0.168-0.098,0.25-0.149c0.086-0.051,0.172-0.098,0.258-0.155
		c0.086-0.06,0.168-0.125,0.254-0.188c0.074-0.054,0.148-0.104,0.219-0.16c0.129-0.104,0.25-0.222,0.371-0.336
		c0.023-0.022,0.047-0.039,0.066-0.062c0.023-0.024,0.043-0.047,0.063-0.071c0.117-0.117,0.227-0.238,0.332-0.367
		c0.063-0.073,0.117-0.151,0.176-0.229c0.059-0.082,0.121-0.16,0.176-0.242c0.059-0.09,0.109-0.18,0.164-0.274
		c0.047-0.073,0.094-0.147,0.137-0.229c0.051-0.09,0.094-0.188,0.137-0.282c0.039-0.082,0.082-0.164,0.117-0.25
		c0.039-0.089,0.066-0.183,0.101-0.277c0.032-0.094,0.067-0.183,0.099-0.276c0.027-0.094,0.047-0.188,0.07-0.285
		c0.023-0.094,0.051-0.188,0.07-0.282c0.023-0.113,0.035-0.226,0.051-0.339c0.012-0.083,0.027-0.161,0.035-0.243
		c0.02-0.199,0.031-0.397,0.031-0.597V6c0-3.313-2.688-6-6-6h-189c-0.055,0-0.106,0.007-0.156,0.007
		c-0.114,0.004-0.227,0.008-0.344,0.02c-0.09,0.004-0.18,0.016-0.27,0.027c-0.101,0.012-0.203,0.028-0.304,0.047
		C80.5,0.117,80.406,0.136,80.312,0.16c-0.097,0.023-0.191,0.047-0.285,0.074C79.934,0.261,79.84,0.289,79.75,0.32
		c-0.094,0.031-0.188,0.066-0.281,0.101c-0.086,0.036-0.172,0.071-0.258,0.11c-0.094,0.039-0.188,0.086-0.277,0.133
		c-0.082,0.043-0.161,0.082-0.235,0.129c-0.094,0.05-0.183,0.105-0.273,0.164c-0.078,0.046-0.149,0.097-0.223,0.148
		c-0.082,0.059-0.168,0.121-0.25,0.188c-0.074,0.062-0.148,0.121-0.223,0.183c-0.07,0.067-0.14,0.129-0.21,0.195
		c-0.079,0.075-0.157,0.157-0.231,0.235c-0.039,0.039-0.078,0.074-0.113,0.117c-0.024,0.023-0.039,0.051-0.059,0.074
		c-0.078,0.086-0.148,0.18-0.219,0.27c-0.05,0.066-0.101,0.136-0.152,0.203c-0.058,0.09-0.117,0.183-0.176,0.273
		c-0.047,0.078-0.097,0.153-0.14,0.231c-0.051,0.09-0.094,0.183-0.137,0.273c-0.043,0.086-0.086,0.168-0.125,0.254
		c-0.039,0.09-0.074,0.184-0.106,0.277c-0.035,0.09-0.07,0.18-0.101,0.27c-0.027,0.094-0.055,0.188-0.078,0.281
		c-0.028,0.094-0.055,0.192-0.074,0.285c-0.02,0.09-0.036,0.184-0.051,0.274c-0.016,0.105-0.035,0.211-0.047,0.312
		c-0.012,0.086-0.016,0.176-0.023,0.262c-0.008,0.113-0.016,0.227-0.016,0.34c0,0.031-0.004,0.062-0.004,0.098v37
		c0,3.312,2.684,6,6,6c3.312,0,6-2.688,6-6V19.324l53.344,47.23c-0.277,0.196-0.547,0.41-0.797,0.66l-52.547,52.551V80.336
		c0-3.317-2.688-6-6-6c-3.316,0-6,2.683-6,6v7.328h-31c-3.316,0-6,2.687-6,6c0,3.316,2.684,6,6,6h31v34.586c0,3.316,2.684,6,6,6h189
		c0.195,0,0.394-0.012,0.59-0.028c0.094-0.011,0.18-0.026,0.273-0.043C271.633,140.168,271.734,140.156,271.84,140.136
		 M264.668,119.765l-52.551-52.551c-0.035-0.031-0.07-0.058-0.105-0.093l39.508-33.516c2.527-2.144,2.836-5.93,0.691-8.457
		c-2.141-2.527-5.926-2.84-8.457-0.691L176.25,81.726L97.496,12h167.172V119.765z M148.703,75.703
		c0.426-0.43,0.773-0.907,1.047-1.414l22.441,19.871c1.133,1.004,2.555,1.508,3.977,1.508c1.379,0,2.762-0.477,3.883-1.426
		l22.867-19.403c0.211,0.301,0.445,0.594,0.715,0.864l52.547,52.55H96.152L148.703,75.703z"/>
	<path clip-path="url(#SVGID_2_)" d="M6,68.332h101.332c3.316,0,6-2.684,6-6c0-3.313-2.684-6-6-6H6c-3.312,0-6,2.687-6,6
		C0,65.648,2.688,68.332,6,68.332"/>
	<path clip-path="url(#SVGID_2_)" d="M16.5,35.269H62c3.312,0,6-2.687,6-6c0-3.316-2.688-6-6-6H16.5c-3.312,0-6,2.684-6,6
		C10.5,32.582,13.188,35.269,16.5,35.269"/>
	<path clip-path="url(#SVGID_2_)" d="M50,113H6c-3.312,0-6,2.687-6,6c0,3.312,2.688,6,6,6h44c3.312,0,6-2.688,6-6
		C56,115.687,53.312,113,50,113"/>
</g>
</svg>
