<?xml version="1.0" encoding="utf-8"?>
<!-- Generator: Adobe Illustrator 22.0.1, SVG Export Plug-In . SVG Version: 6.00 Build 0)  -->
<svg version="1.1"
	 id="svg8" xmlns:cc="http://creativecommons.org/ns#" xmlns:dc="http://purl.org/dc/elements/1.1/" xmlns:rdf="http://www.w3.org/1999/02/22-rdf-syntax-ns#" xmlns:svg="http://www.w3.org/2000/svg"
	 xmlns="http://www.w3.org/2000/svg" xmlns:xlink="http://www.w3.org/1999/xlink" x="0px" y="0px" viewBox="0 0 1492.3 1635.2"
	 style="enable-background:new 0 0 1492.3 1635.2;" xml:space="preserve">
<g id="layer1" transform="translate(248.09153,36.850023)">
	<path id="path21" d="M361.1,1596.4c-1.1-1.1-2-2.8-2-3.8c0-1,0-89.2,0-196c0-191,0-194.3-1.9-196.2c-2-2-7.9-4-18.1-6.1
		c-3-0.6-9.1-2.2-13.5-3.6c-4.4-1.3-12.7-3.1-18.5-3.9c-5.9-0.8-15.7-3.2-22.5-5.4c-6.6-2.2-14-4.3-16.5-4.6
		c-4.5-0.7-17.9-4.8-21.3-6.7c-1-0.5-5.9-1.8-11-3s-12.1-3.5-15.7-5.3c-3.6-1.8-8.3-3.6-10.5-4c-4.1-0.7-13.1-4-22-8.1
		c-2.7-1.2-7.4-2.8-10.2-3.5c-2.9-0.7-7.2-2.5-9.5-4.1c-2.3-1.6-7.2-3.9-10.8-5s-7.6-2.9-9-3.9c-1.4-0.9-5.7-2.9-9.5-4.4
		c-3.8-1.5-9-3.8-11.5-5.2c-2.5-1.4-7-3.6-10-5c-3-1.4-7.5-3.6-10-5c-2.5-1.4-7.9-4.1-12-6.1c-4.1-2-8.8-4.7-10.4-6
		c-1.6-1.3-5.6-3.7-9-5.2c-3.4-1.5-6.8-3.6-7.6-4.6c-0.8-1-3.9-2.9-7-4.2c-3-1.3-7.8-4.2-10.5-6.3c-2.8-2.1-6.3-4.2-7.8-4.6
		c-1.5-0.4-4.6-2.4-7-4.4c-2.4-2.1-5.8-4.6-7.8-5.5c-1.9-1-5.2-3.3-7.2-5.1c-2-1.8-5.5-4.2-7.8-5.3c-2.3-1.1-5.8-3.4-7.8-5.1
		c-4.4-3.7-20.8-16.8-27.5-21.9c-2.6-2-7.2-5.7-10.1-8.2c-2.9-2.5-8.2-6.8-11.7-9.5c-14.3-11.1-63.5-61.6-72.8-74.5
		c-1.8-2.5-6.1-8.1-9.7-12.5c-3.6-4.4-7.9-10-9.7-12.4c-1.8-2.4-4.9-6.4-7-8.8c-2.1-2.4-3.8-4.8-3.8-5.3s-1.5-2.6-3.4-4.7
		c-1.9-2.1-4.3-5.6-5.4-7.8c-1.1-2.2-4.1-6.9-6.6-10.4c-2.5-3.5-4.6-6.9-4.6-7.5c0-0.6-1.3-2.6-2.9-4.6c-1.6-1.9-4.5-6.9-6.6-11
		c-2.1-4.1-4.6-8.4-5.6-9.5c-1-1.1-3.2-5.3-4.8-9.2c-1.6-4-4.1-8.7-5.5-10.5c-1.4-1.8-3.5-6.2-4.7-9.8c-1.2-3.6-3.3-8.1-4.6-10
		c-2.4-3.5-6.4-14.1-6.4-16.7c0-0.8-1.5-4-3.4-7.1c-1.9-3.1-4.4-9.3-5.6-13.7c-1.2-4.4-3.1-9.6-4.2-11.5c-1.1-1.9-3.3-9.3-4.9-16.3
		c-1.6-7.1-3.4-13.7-4-14.8c-2.4-4.4-5.8-18.2-6.9-27.5c-0.6-5.4-2-13.4-3.1-17.8c-4-16.6-7.1-43.4-6.8-58.5
		c0.1-4.7-0.3-14.2-0.9-21.2c-0.7-8.1-0.7-14.4-0.1-17.5c0.5-2.6,1.1-13.6,1.3-24.3c0.4-23.4,1.2-30.8,5.3-50.5
		c1.7-8.3,4.1-21.1,5.3-28.5c1.2-7.4,3.5-17.1,5.1-21.5c1.6-4.4,3.6-11.8,4.4-16.4c0.8-4.8,2.7-10.9,4.4-14.2
		c1.6-3.2,3.7-8.7,4.6-12.1c1.6-6.3,5.3-16.1,7.8-20.8c0.7-1.4,2.3-5.7,3.5-9.7c1.2-4,3.2-8.5,4.5-10c1.3-1.5,3.6-6.3,5.1-10.6
		c1.6-4.3,3.7-8.9,4.7-10.2c1-1.3,3.7-6.1,5.9-10.7c7.7-15.8,12.4-24.4,14.9-27.5c1.4-1.7,3.2-4.6,3.9-6.4c0.7-1.9,3.2-6.1,5.6-9.4
		c2.3-3.3,5.1-7.8,6.2-10c1.1-2.2,3-4.9,4.2-6c1.2-1.1,2.9-3.3,3.7-4.9c0.8-1.6,4.9-7.3,9.1-12.8c4.2-5.5,9.7-12.6,12.2-15.8
		c15.9-20.8,30.5-37.2,51.6-58.4c14.5-14.5,33.5-32,40.9-37.6c3.2-2.5,8.2-6.5,11.1-9c5.9-5.1,13.6-11.1,19.8-15.5
		c2.3-1.7,6.1-4.7,8.4-6.8c2.3-2.1,4.6-3.8,5.1-3.8c0.5,0,2.7-1.5,4.7-3.4c2.1-1.9,5.6-4.3,7.8-5.4c2.2-1.1,6-3.7,8.4-5.7
		c2.4-2,6.5-4.7,9-6c2.5-1.3,5.3-3.1,6.1-4.1c0.8-1,4.1-3,7.4-4.5c3.3-1.5,7.8-4.1,9.9-5.9c2.2-1.7,5.9-4,8.2-5.1
		c2.4-1,5.8-3,7.6-4.4c1.8-1.4,6.3-3.9,9.9-5.5c3.6-1.6,6.9-3.5,7.3-4.1c0.8-1.4,12.8-6.9,14.8-6.9c0.8,0,2.8-1.1,4.4-2.5
		c3.1-2.6,13.2-7.5,15.6-7.5c0.8,0,2.7-1.1,4.2-2.4c3.8-3.2,7.9-5.1,13.8-6.6c2.7-0.7,7.5-2.7,10.5-4.6c3-1.9,8.2-4.1,11.5-5.1
		c3.3-0.9,9-3.2,12.6-5c3.7-1.8,10-4.2,14-5.3c4-1.1,10.5-3.3,14.2-5.1c3.8-1.7,10.1-3.8,14-4.7c3.9-0.9,11.2-3.3,16.1-5.4
		c5-2.1,11.3-4.1,14-4.5c2.8-0.4,10.3-2.4,16.7-4.6c6.4-2.1,16-4.6,21.1-5.4c9.8-1.6,14.3-2.7,28.6-6.8c4.7-1.4,14.3-3,21.5-3.7
		c7.1-0.7,15.4-2.1,18.4-3.1c3-1,7.3-1.9,9.5-1.9c2.3,0,5.7-0.5,7.6-1.1c6.3-1.9,44.2-5.2,57.5-5c4.9,0.1,13-0.6,18-1.5
		c13.5-2.4,100.9-2.4,107.5,0c3.4,1.2,7.9,1.6,18.5,1.5c20.4-0.2,65.2,3.5,73.5,6c3.7,1.1,32.5,5.4,44.5,6.6
		c3.8,0.4,10.4,1.7,14.5,3c10.8,3.3,19.3,5.2,29,6.4c4.7,0.6,12.3,2.4,17,4.1c4.7,1.7,14,4.1,20.8,5.5c7.2,1.5,15,3.8,18.6,5.5
		c3.6,1.7,9.8,3.6,14.7,4.4c5.6,0.9,10.9,2.6,15.4,4.9c3.8,1.9,10.6,4.4,15.1,5.5c4.5,1.1,9.9,3.2,12,4.6c2.1,1.4,7.2,3.5,11.3,4.7
		c4.1,1.2,10.4,3.7,14,5.4c3.6,1.8,9,3.9,12,4.8c3,0.9,7.8,3.2,10.5,5.1c2.7,1.9,7.2,4.2,10,5s7.3,3.1,10,5c2.7,1.9,7.3,4.2,10,5
		c2.8,0.8,6.9,2.8,9.1,4.4c2.2,1.6,6.5,4.2,9.4,5.7c2.9,1.5,6.6,3.6,8,4.6c1.5,1,5.8,3.4,9.6,5.3c3.8,1.9,7.5,4.1,8.3,5.1
		c0.8,0.9,3.7,2.8,6.4,4.2c2.8,1.4,6.7,4,8.8,5.9c2,1.8,5.5,4.2,7.8,5.3c2.2,1.1,5.5,3.1,7.3,4.6c4.4,3.6,11.3,8.9,16.7,12.8
		c2.5,1.8,6.3,4.9,8.5,6.8c2.2,2,6.2,4.8,8.9,6.3c2.6,1.5,5,3.4,5.3,4.1s3.3,3.5,6.7,6.2c14.9,11.7,62.1,60.5,66.3,68.6
		c0.9,1.8,3.4,5.3,5.5,7.8c7.3,8.6,13.5,16.5,16.2,20.7c1.4,2.3,3.1,4.5,3.7,4.8c0.6,0.4,2,2.5,3.2,4.8c1.2,2.3,3.8,6.5,6,9.2
		s4.9,7.5,6.3,10.5c1.3,3,3.2,6.1,4.2,7c1,0.8,3.3,4.8,5.2,9c1.9,4.1,4.5,8.8,5.7,10.5c1.2,1.6,3.2,5.7,4.4,9
		c1.2,3.3,3.4,7.8,5,10.1c1.6,2.2,3.9,6.7,5,10c1.1,3.3,3.4,7.7,4.9,9.9c1.6,2.2,3.6,7.1,4.5,11s3.2,10.2,5.1,14
		c1.9,3.9,4.5,11.1,5.9,16c1.3,4.9,3.8,13,5.4,18c1.7,4.9,4,13.3,5.2,18.5c1.2,5.2,3.5,13.8,5,19c1.7,5.5,3.5,15.2,4.4,23.1
		c0.9,7.5,2.2,15.8,3,18.5c3.1,10.6,6.8,42.1,6.5,55.5c-0.1,4.1,0.2,20.5,0.7,36.5c0.5,15.9,0.5,31,0,33.5c-0.4,2.5-1,10-1.2,16.7
		c-0.4,13.6-3.7,36.7-6.6,45.8c-1,3.3-2.6,11.4-3.4,18c-1,7.5-2.8,15.7-4.9,22c-1.9,5.5-4.3,14-5.5,18.9c-1.1,4.9-3.2,11.4-4.6,14.4
		c-1.4,3-3.2,8.3-4.1,11.6c-1.6,6.1-5.3,15.9-7.8,20.6c-0.7,1.4-2.3,5.7-3.4,9.6c-1.2,3.9-3.1,8.3-4.3,9.8
		c-1.2,1.5-3.2,6.1-4.5,10.2c-1.3,4.1-3.9,9.6-5.7,12.3c-1.8,2.7-3.9,7.1-4.6,9.7c-0.7,2.7-2.2,6.7-3.3,8.9c-1.2,2.2-4,7.6-6.3,12
		c-2.3,4.4-5.3,9.7-6.8,11.8s-3.6,6.4-4.8,9.5s-3.2,6.8-4.4,8.2c-1.3,1.4-3.9,5.7-5.9,9.7c-2,3.9-4.1,7.5-4.6,7.8
		c-0.6,0.4-2.4,3.3-4.1,6.6c-2.7,5.3-5.9,10.6-13.7,22.1c-1.2,1.8-3,4.6-4,6.2c-1,1.6-3.2,5-5,7.5c-1.8,2.5-4.5,6.6-6,8.9
		s-3.8,5.7-5,7.5c-1.2,1.8-3,4.5-4,6.1c-1,1.6-3.2,5-5,7.5c-1.8,2.5-5.2,7.6-7.7,11.2c-2.5,3.6-5.2,7.2-6.1,7.9
		c-0.9,0.7-2.3,2.7-3.2,4.4c-0.9,1.7-3.1,4.9-4.9,7.1s-4.9,6-6.8,8.5c-1.9,2.5-6.1,7.8-9.3,11.8c-3.2,4-7.6,9.7-9.8,12.6
		c-7.9,10.5-10.1,13.2-18.5,22.9c-4.7,5.4-9.9,11.5-11.5,13.6c-1.6,2.1-6.4,7.8-10.5,12.6c-4.1,4.8-8.6,10.2-9.9,11.9
		c-2.7,3.4-6,7.1-29.1,32.2c-27.2,29.6-128.8,130.2-138.8,137.4c-2.1,1.5-6.7,5.6-10.4,9.2c-3.6,3.6-8.1,7.6-10,8.8
		c-1.9,1.3-7.2,5.8-11.9,10c-4.7,4.2-10.4,9.2-12.7,11.1c-2.3,1.9-10.1,8.8-17.4,15.4c-13.8,12.6-18.9,16.8-27.9,23.5
		c-3,2.2-8,6.2-11.1,8.8c-3.1,2.6-9.5,8.1-14.4,12.2c-16.5,14-24.2,20.3-35.5,29c-17.7,13.6-21,16.2-26.5,20.9
		c-3.3,2.8-8,6.4-10.4,7.9c-2.4,1.5-6,4.1-8,5.8c-2,1.7-5.7,4.4-8.1,5.9c-2.5,1.5-6.4,4.4-8.7,6.4c-8.8,7.6-13.2,11.1-17,13.2
		c-2.1,1.2-5.2,3.4-6.9,4.9c-1.7,1.5-5,4-7.5,5.5c-2.5,1.5-6.5,4.5-9,6.6c-11.6,9.9-14.7,12.2-17.9,13.6c-1.9,0.8-5.3,3-7.5,4.8
		c-10.5,8.7-17.4,13.8-21.2,15.5c-2.3,1-4.7,2.6-5.5,3.5c-0.8,0.9-4.3,3.6-7.9,6.1c-8.9,6-19.1,13.3-22.6,16.1
		c-1.6,1.3-4.3,2.9-6,3.7c-1.7,0.7-4.9,2.9-7,4.8c-2.1,1.9-5.4,4.3-7.4,5.2c-1.9,1-5.4,3.5-7.8,5.6c-2.4,2.1-5.6,4.1-7.2,4.4
		c-1.6,0.3-4.8,2.3-7.2,4.4c-2.4,2.1-5.9,4.6-7.8,5.6c-1.9,1-5.4,3.5-7.8,5.6s-5.6,4.1-7.2,4.4c-1.6,0.3-4.8,2.3-7.2,4.4
		c-2.4,2.1-5.9,4.6-7.8,5.6c-1.9,1-5.2,3.3-7.2,5.1c-2,1.8-5.5,3.8-7.7,4.5c-2.2,0.7-6.2,3-8.8,5.2c-2.6,2.2-7.1,5-9.8,6.3
		c-2.8,1.2-6.1,3.5-7.5,5C372.3,1598.3,364.7,1600,361.1,1596.4L361.1,1596.4z M484.7,1370.7c6.6-5.8,14.6-11.8,17.9-13.5
		c1.7-0.8,3.9-2.5,5-3.7c1.1-1.2,4.1-3.3,6.7-4.6c2.6-1.3,6.9-4.3,9.7-6.6c10.8-9.2,14-11.8,17.7-13.9c2.1-1.2,5.2-3.4,6.9-4.9
		c1.6-1.5,5-4,7.5-5.5c2.5-1.5,6.3-4.4,8.6-6.4s6.5-5.5,9.5-7.8c3-2.3,7.4-5.8,9.9-7.7c2.5-1.9,7-5.2,10-7.2s7.6-5.5,10.1-7.8
		c6.2-5.5,15.9-13.5,23.9-19.7c3.6-2.8,8.1-6.5,10-8.3c1.9-1.7,5.1-4.3,7-5.6c4.3-3,18.8-15.2,28.6-24c9.7-8.7,21.4-18.7,27.1-23
		c2.5-1.9,7.4-6,10.8-9c22.4-20,38-34.4,51.5-47.6c8.5-8.3,17.3-16.4,19.5-18c5.1-3.7,64.7-63.3,74-74c3.8-4.4,12.4-13.6,19-20.5
		c15.7-16.4,44.2-48.6,48.5-54.9c3.2-4.6,8-10.4,16.3-19.7c3.7-4.2,8.6-10.1,10.9-13.2c2.3-3.1,5.6-7.2,7.3-9.1
		c1.7-1.9,4.4-5.5,5.8-8c1.5-2.5,5.4-7.9,8.7-12c3.3-4.1,7.7-10,9.6-13c2-3,5.1-7.3,6.9-9.4c1.8-2.2,3.3-4.5,3.3-5.2s1.8-3.5,4-6.2
		c2.2-2.8,5.4-7.4,7.2-10.3c1.8-2.9,4.5-6.9,6-8.8c1.5-1.9,2.8-4,2.8-4.7s1.8-3.5,4.1-6.4c2.3-2.9,5.4-7.8,6.9-10.9
		c1.6-3.2,3.6-6.3,4.5-7.1c0.9-0.7,2.9-4.2,4.5-7.7c1.6-3.5,3.9-7.8,5.2-9.5c3-4.2,10.2-16.9,13.3-23.8c1.4-3,3.5-7.3,4.7-9.5
		c7.3-13.8,16.9-33.9,16.8-35.5c0-1.9,4.6-12,6.4-14c0.7-0.8,2.3-5.1,3.5-9.5c1.2-4.4,2.8-8.9,3.5-10c2.3-3.6,6.1-14.8,7.5-22
		c0.7-3.8,2.6-9.9,4.3-13.5c2-4.4,3.7-11.1,5.3-20.5c1.3-7.7,3.5-18.5,4.8-24c3.7-15.2,4.6-27.7,4.7-66c0.1-44.6-1.1-60.2-5.9-80.5
		c-1.1-4.7-2.8-13.8-3.6-20.3c-0.9-6.8-2.8-15.4-4.6-20.3c-1.7-4.7-4.1-13.4-5.4-19.3c-1.3-5.9-3.8-13.5-5.5-16.9s-3.6-8.7-4.2-11.9
		c-1.2-6.3-2.8-10.1-6.5-15c-1.3-1.7-2.4-3.6-2.4-4.3c0-2.8-4.3-13.7-6.5-16.3c-1.3-1.5-3.6-6-5.1-10.1c-1.5-4-3.6-8.2-4.5-9.3
		s-2.9-4.4-4.4-7.3c-1.5-2.9-4.7-8.2-7.1-11.8c-2.4-3.6-4.5-7.1-4.5-7.8s-1.5-3-3.3-5.2c-1.8-2.2-5-6.4-7-9.4
		c-14.9-22.5-25.8-35-55.9-64.5c-21.9-21.5-28.4-27.2-33.5-29.9c-1.8-0.9-5.5-3.6-8.2-5.9c-2.7-2.3-6.8-5.6-9.1-7.2
		c-2.3-1.6-7.4-5.4-11.3-8.2c-3.9-2.9-9.4-6.3-12.2-7.6c-2.7-1.3-7.2-4.2-9.8-6.4c-2.6-2.2-6.6-4.5-8.8-5.2s-5.5-2.5-7.3-4.1
		c-1.8-1.6-6.4-4.3-10.1-6c-3.7-1.7-8.1-4.2-9.7-5.5s-3.6-2.5-4.3-2.5c-2.1,0-10.6-3.8-14.5-6.5c-1.9-1.3-6.7-3.4-10.5-4.6
		c-3.8-1.2-8.1-2.9-9.5-3.9c-3.2-2.2-12.4-6.1-14.4-6.1c-2.8,0-10.9-3.1-14.8-5.7c-2.3-1.5-7.4-3.3-13-4.4c-5.2-1.1-12-3.3-15.8-5.2
		c-3.9-2-10.3-4.1-15.6-5.1c-4.9-1-13.5-3.3-19-5.1c-5.5-1.8-15.4-4.2-22-5.3c-6.6-1.1-15.6-3.1-20-4.5c-7.6-2.4-22.2-4.8-36.5-6.1
		c-5.8-0.5-10.7-1.3-29-4.6c-3-0.5-8-1.4-11-1.9c-3-0.5-18.5-1.4-34.3-1.9c-15.8-0.6-29.2-1.3-29.8-1.6c-1.8-1.1-66.1-0.7-70.9,0.4
		c-2.5,0.6-10.8,1.1-18.5,1.1c-14.9,0-39,2.2-44,3.9c-1.6,0.6-7.6,1.7-13.3,2.5s-10.6,1.7-11.1,2c-0.5,0.3-6.2,1-12.7,1.6
		c-7,0.6-15,2.1-19.4,3.5c-9.5,3-18.1,5.1-24.5,6c-5,0.7-15.9,4-22.6,6.9c-2,0.8-8.1,2.3-13.5,3.2c-6.6,1.1-12,2.8-16.4,4.9
		c-3.6,1.8-10.1,4.2-14.5,5.4c-4.4,1.2-10.2,3.4-13,5c-2.8,1.6-7.9,3.6-11.5,4.5c-3.6,0.9-7.9,2.5-9.5,3.5c-1.7,1-7.1,3.5-12,5.5
		c-5,2-11.3,4.9-14.2,6.5c-2.8,1.6-7.3,3.5-9.9,4.1s-6.6,2.7-9,4.5s-7.6,4.9-11.6,6.9c-8.9,4.3-21.3,11.3-25.4,14.2
		c-1.6,1.2-5.7,3.5-9,5.2c-3.3,1.7-6.7,3.8-7.4,4.7c-0.8,0.9-3.5,2.7-6.2,4.1c-2.6,1.3-6.3,3.7-8.1,5.3s-5.8,4.5-8.8,6.6
		c-11.6,7.8-15.7,10.6-20,14c-10.3,8-22,17.4-27.4,22.1c-11.1,9.5-55.1,54.2-65.1,66c-5.5,6.5-12.1,14.3-14.7,17.2
		c-2.6,2.9-5.7,7.2-6.9,9.6c-1.2,2.4-3.7,6-5.5,8c-1.9,2.1-3.4,4.1-3.4,4.6s-2.1,3.5-4.6,6.7c-2.5,3.2-5.6,8.2-6.9,11
		c-1.3,2.8-2.8,5.4-3.4,5.8s-2.7,3.7-4.5,7.4c-1.9,3.7-4.7,8.4-6.4,10.5c-1.7,2.1-3.7,6.2-4.6,9c-0.8,2.9-3.1,7.4-5,10.1
		c-1.9,2.7-4.5,8.1-5.6,12s-3.2,8.6-4.5,10.6c-2.5,3.7-5.5,11.2-5.5,13.9c0,0.9-1.8,5.4-4.1,10c-2.3,4.7-4.8,12.2-5.8,17
		c-1,4.7-3,11.2-4.4,14.4c-1.8,3.9-3.3,10.4-4.6,19.5c-1.1,7.5-2.9,16.5-4,20s-2,8-2,10c0,2-0.5,5.2-1.1,7.2c-1.9,6.3-3.1,27-3,56
		c0,34.1,1.2,48.5,5.1,64.5c1.6,6.6,3.6,17.2,4.5,23.5c1.4,10.6,3.6,18.3,7,25c0.8,1.5,2.1,6.5,3.1,11.1c0.9,4.6,3.2,11.4,4.9,14.9
		s4.2,9.8,5.3,13.9c1.1,4.1,2.7,8.1,3.6,9c1.9,2.2,6.6,12.2,6.6,14.3c0,0.9,1.7,4,3.7,6.9c2,2.9,4.9,8.1,6.4,11.4
		c1.5,3.4,3.5,6.7,4.4,7.5s2.9,3.9,4.5,7.1c1.6,3.2,4.7,8.1,6.9,10.9c2.3,2.9,4.1,5.6,4.1,6.2c0,2.3,20.3,28.7,30.8,40
		c3.9,4.2,8,9.4,9.1,11.5c2.2,4.2,35,36.9,42.1,42.1c2.5,1.8,7.7,6,11.7,9.5c14.6,12.8,25.8,21.8,35.3,28.1c3.6,2.4,7.1,5.1,7.9,6.1
		c0.8,1,3.1,2.6,5.1,3.6c2,1,5.6,3.5,8,5.5c2.4,2,6.2,4.6,8.4,5.7c2.2,1.1,5.2,3.1,6.6,4.4c1.4,1.3,4.6,3.3,7.1,4.4
		c2.6,1.1,6.7,3.8,9.3,5.9c2.6,2.1,6.4,4.4,8.5,5c2.1,0.6,5.8,2.7,8.2,4.6c2.4,1.9,6.6,4.2,9.2,5.1c2.7,0.9,6.3,2.9,8,4.4
		s6.2,4,9.9,5.5c3.7,1.5,8.3,4,10.3,5.6c2,1.6,4.2,2.9,4.9,2.9c2,0,10.6,3.9,14.5,6.6c2,1.4,6.5,3.3,10,4.3c3.5,1,8.7,3.3,11.4,5
		c2.8,1.7,7.9,4.1,11.4,5.2c3.5,1.1,10.1,3.7,14.5,5.9c4.4,2.1,10.5,4.4,13.4,5c2.9,0.6,8.2,2.7,11.6,4.6c3.8,2.1,9.3,4.1,14.1,5.1
		c4.4,0.9,11.1,3.1,14.9,5c3.9,1.9,11.2,4.3,16.4,5.4c5.2,1.1,10.5,2.7,11.8,3.6c3.4,2.2,12.7,5.1,21,6.3c3.9,0.6,10.2,2.5,14,4.2
		c4.8,2.2,11.1,3.8,20.9,5.4c7.7,1.3,16,3.1,18.5,4c6.5,2.4,16.2,4.5,27,6.1c21.6,3.1,28.4,4.4,30,6c4,3.6,4,6.3,4,134.8
		c0,68.3-0.1,126,0,128.3C473.2,1375.1,478,1376.6,484.7,1370.7L484.7,1370.7z"/>
</g>
</svg>
