<?xml version="1.0" encoding="utf-8"?>
<!-- Generator: Adobe Illustrator 16.0.0, SVG Export Plug-In . SVG Version: 6.00 Build 0)  -->
<!DOCTYPE svg PUBLIC "-//W3C//DTD SVG 1.1//EN" "http://www.w3.org/Graphics/SVG/1.1/DTD/svg11.dtd">
<svg version="1.1" id="Шар_1" xmlns="http://www.w3.org/2000/svg" xmlns:xlink="http://www.w3.org/1999/xlink" x="0px" y="0px"
	 width="391.979px" height="391.974px" viewBox="0 0 391.979 391.974" enable-background="new 0 0 391.979 391.974"
	 xml:space="preserve" style="fill: #fff;">
<g>
	<defs>
		<rect id="SVGID_1_" width="391.979" height="391.974"/>
	</defs>
	<clipPath id="SVGID_2_">
		<use xlink:href="#SVGID_1_"  overflow="visible"/>
	</clipPath>
	<path clip-path="url(#SVGID_2_)" d="M355.237,101.528l-25.918,25.917l-64.8-64.878l25.918-25.922c5.281-5.278,14.48-5.278,19.761,0
		l45.039,45.121C360.68,87.207,360.68,96.086,355.237,101.528 M138.68,318.328l-64.801-64.883L241.397,85.688l64.801,64.879
		L138.68,318.328z M58.917,284.727l48.48,48.558l-67.519,19.043L58.917,284.727z M378.358,58.645l-45.039-45.117
		c-8.8-8.801-40.562-25.442-65.922,0L39.16,241.926c-2,2-3.441,4.401-4.16,7.121L0.598,371.528c-1.598,5.679,0.082,11.757,4.16,16
		c4.16,4.238,12.48,4.96,16,4.16l122.402-34.481c2.719-0.719,5.117-2.159,7.117-4.159l228.082-228.402
		C396.52,106.488,396.52,76.887,378.358,58.645"/>
</g>
</svg>
