<?xml version="1.0" encoding="utf-8"?>
<!-- Generator: Adobe Illustrator 22.0.1, SVG Export Plug-In . SVG Version: 6.00 Build 0)  -->
<svg version="1.1" id="Layer_1" xmlns="http://www.w3.org/2000/svg" xmlns:xlink="http://www.w3.org/1999/xlink" x="0px" y="0px"
	 viewBox="-49 141 512 512" style="enable-background:new -49 141 512 512;" xml:space="preserve">
<style type="text/css">
	.st0{fill:#FC3952;}
</style>
<g>
	<path class="st0" d="M21.8,612.1l-38.6,32L-41.1,632c-4.4-2.2-6.1-7.5-3.9-11.8c0.5-0.9,1.1-1.7,1.8-2.5l35.3-35.3L21.8,612.1z"/>
	<path class="st0" d="M455.9,253.1l-286.4,331L19.5,434.1l328.1-288.8c7-6.1,17.6-5.6,24.1,1l83.1,83.1
		C461.2,235.7,461.8,246.1,455.9,253.1z"/>
</g>
<path d="M169.5,584.2l-12.4,12.5c-6.9,6.9-18.1,6.9-25,0c0,0,0,0,0,0c-11.4-2.7-23-4-34.7-4c-26-0.8-51.4,7.5-71.9,23.7
	c-3.5,2.8-8.6,2.5-11.7-0.6l-25.5-25.6c-3.1-3.2-3.4-8.1-0.7-11.7C24.5,534.4,7.4,472,7.4,472c-3.3-3.3-5.1-7.8-5.1-12.5
	c0-4.7,1.8-9.1,5.1-12.4l12.4-12.5L169.5,584.2z"/>
<path class="st0" d="M265.7,653H-16.7c-4.9,0-8.8-4-8.8-8.8c0-4.9,4-8.8,8.8-8.8h282.5c4.9,0,8.8,4,8.8,8.8
	C274.5,649,270.6,653,265.7,653z"/>
</svg>
