<?xml version="1.0" encoding="utf-8"?>
<!-- Generator: Adobe Illustrator 22.0.1, SVG Export Plug-In . SVG Version: 6.00 Build 0)  -->
<svg version="1.1"
	 id="svg8" xmlns:cc="http://creativecommons.org/ns#" xmlns:dc="http://purl.org/dc/elements/1.1/" xmlns:rdf="http://www.w3.org/1999/02/22-rdf-syntax-ns#" xmlns:svg="http://www.w3.org/2000/svg"
	 xmlns="http://www.w3.org/2000/svg" xmlns:xlink="http://www.w3.org/1999/xlink" x="0px" y="0px" viewBox="0 0 686.8 545.6"
	 style="enable-background:new 0 0 686.8 545.6;" xml:space="preserve">
<style type="text/css">
	.st0{fill:none;}
</style>
<g id="layer1" transform="translate(-1.3703816,-44.845797)" style="fill: #00a1eb;">
	<path id="path21" class="st0" d="M-3.8-124.7"/>
	<path id="path34" d="M59.8,590.2c-23.9-3.2-46.7-22.4-55.1-46.4l-2.9-8.4L1.5,372.9C1.2,191.4,0.8,201.4,8.2,186.4
		c7.1-14.6,17.4-25,31.6-31.9c14-6.8,13.6-6.8,70-7.5l51-0.6l4.5-2.7c2.5-1.5,6.3-4.5,8.4-6.7c3.6-3.7,4.9-6.9,16.3-40.3
		c8.7-25.4,13.2-37.3,15.2-39.8c3.5-4.4,11.1-9.6,16-11c5.1-1.4,242.3-1.4,247.4,0c4.8,1.3,12.5,6.6,16,11c2,2.5,6.5,14.4,15.2,39.8
		c11.4,33.5,12.7,36.6,16.3,40.3c2.1,2.2,5.9,5.2,8.4,6.7l4.5,2.7l51,0.6c56.4,0.7,56,0.6,70,7.5c14.2,6.9,24.5,17.3,31.6,31.9
		c7.3,15,7,5,6.7,186.5l-0.3,162.5l-2.9,8.4c-7.3,21-24.3,37.3-46.6,44.8c-5.3,1.8-16.1,1.9-290.5,2
		C191,590.5,61.4,590.4,59.8,590.2L59.8,590.2z M374.7,519.9c20.8-3.6,43-12,61.1-23.3c37.5-23.4,64.8-60.6,75.5-103.1
		c7.6-29.9,6.4-64.4-3.1-93.9c-4.1-12.6-15.5-35.3-23.7-46.7c-8.7-12.2-27.1-30.6-39.3-39.3c-11.5-8.2-34.1-19.6-46.8-23.7
		c-20-6.4-27.3-7.5-53.7-7.5c-26.4,0-33.7,1-53.7,7.5c-12.8,4.1-35.3,15.6-46.8,23.7c-12.2,8.7-30.6,27.1-39.3,39.3
		c-8.1,11.4-19.6,34.1-23.7,46.7c-7,21.6-9.7,49.8-7.1,72.3c5.9,50.8,35.6,97.3,79.5,124.7C289.5,518.9,332.4,527.1,374.7,519.9
		L374.7,519.9z M324.3,452.3c-21.2-4.6-39-14.4-53.7-29.8c-16.9-17.7-26.1-37.8-28.2-61.5c-2.6-30.2,7.4-58.3,28.4-79.7
		c10.3-10.5,17.8-15.8,30.9-22.1c14.6-6.9,24.1-8.9,43.1-8.9s28.4,1.9,43.1,8.9c13.1,6.2,20.7,11.6,30.9,22.1
		c21,21.4,31,49.5,28.4,79.7c-1.1,12.9-4.1,23.6-9.8,35.3c-14.1,28.8-40.7,49.4-72.3,55.9C355.5,454.3,333.4,454.3,324.3,452.3
		L324.3,452.3z M353.3,382.4v-22.5h22.5h22.5v-8v-8h-22.5h-22.5v-22.5v-22.5h-8h-8v22.5v22.5h-22.5h-22.5v8v8h22.5h22.5v22.5v22.5h8
		h8V382.4z M608.4,259.3c2.4-1.7,5.6-4.9,7.3-7.3c2.8-4,3-5,3-12.6c0-7.7-0.2-8.7-3-12.6c-5-7.2-10.4-10.2-18.5-10.7
		c-6-0.3-7.7,0-12.4,2.3c-15.1,7.4-17.8,27.9-5.1,38.9c4.8,4.2,9.8,5.8,17.3,5.4C603.1,262.4,604.8,261.9,608.4,259.3L608.4,259.3z"
		/>
</g>
</svg>
