<?xml version="1.0" encoding="utf-8"?>
<!-- Generator: Adobe Illustrator 22.0.1, SVG Export Plug-In . SVG Version: 6.00 Build 0)  -->
<svg version="1.1" id="Layer_1" xmlns="http://www.w3.org/2000/svg" xmlns:xlink="http://www.w3.org/1999/xlink" x="0px" y="0px"
	 viewBox="-49 141 512 512" style="enable-background:new -49 141 512 512;" xml:space="preserve">
<style type="text/css">
	.st0{fill:#B9BCBD;}
	.st1{fill:#F2F2F2;}
</style>
<path class="st0" d="M301,453.4l-38.7-1l1,38.7c1,62.7,53.3,113.9,116,116l38.7,1l-1-38.7C414.9,506.7,363.7,454.5,301,453.4z"/>
<path class="st0" d="M311.5,474.3l-27.2-1l1,27.2c1,44.9,38.7,82.5,83.6,83.6l27.2,1l-1-27.2C394,513,356.4,475.4,311.5,474.3z"/>
<path class="st0" d="M457.8,450.3c-5.2-9.4-12.5-17.8-19.9-25.1c-18.8-18.8-41.8-31.3-66.9-37.6c-47-11.5-99.3,1-135.8,37.6
	S186.1,514,197.6,561c6.3,24,18.8,48.1,37.6,66.9c7.3,7.3,16.7,14.6,25.1,19.9c-54.3,2.1-110.8-17.8-152.6-59.6
	c-33.4-33.4-52.2-74.2-58.5-117c-8.4-61.6,11.5-125.4,58.5-172.4s111.8-66.9,172.4-58.5c42.8,6.3,84.6,25.1,117,58.5
	C440,339.5,459.9,396,457.8,450.3z"/>
<path class="st1" d="M367.9,451.3C338.7,272.7,185.1,141-5.1,146.2l-37.6,1l-1,37.6c-5.2,190.2,126.4,343.8,305.1,373L367.9,451.3z"
	/>
<g>
	<path class="st0" d="M179.8,534.9c26.1,10.4,53.3,17.8,81.5,23l105.5-105.5c-4.2-28.2-12.5-55.4-23-81.5L179.8,534.9z"/>
	<path class="st0" d="M119.2,162.9c-38.7-11.5-80.5-17.8-124.3-16.7l-37.6,1l-1,37.6c-1,43.9,5.2,85.7,16.7,124.3L119.2,162.9z"/>
</g>
<path class="st1" d="M261.3,557.9c10.4,2.1,21.9,3.1,32.4,4.2l77.3-77.3c-1-11.5-2.1-21.9-4.2-32.4L261.3,557.9z"/>
<ellipse class="st0" cx="130.6" cy="321" rx="80.5" ry="80.5"/>
<ellipse class="st0" cx="130.6" cy="321" rx="56.4" ry="56.4"/>
<path class="st0" d="M95.2,293.6c19.9-19.9,51.2-19.9,71.1,0c18.8,18.8,19.9,49.1,2.1,69c1-1,2.1-1,2.1-2.1
	c21.9-21.9,21.9-57.5,0-79.4c-21.9-21.9-57.5-21.9-79.4,0c-21.9,21.9-21.9,57.5,0,79.4c1,1,2.1,1,2.1,2.1
	C76.4,342.7,76.4,312.4,95.2,293.6z"/>
</svg>
