<?xml version="1.0" encoding="utf-8"?>
<!-- Generator: Adobe Illustrator 22.0.1, SVG Export Plug-In . SVG Version: 6.00 Build 0)  -->
<svg version="1.1" id="Шар_1" xmlns="http://www.w3.org/2000/svg" xmlns:xlink="http://www.w3.org/1999/xlink" x="0px" y="0px"
	 viewBox="0 0 50.5 79.3" style="enable-background:new 0 0 50.5 79.3;" xml:space="preserve">
<style type="text/css">
	.st0{fill:#00A1EB;}
</style>
<path class="st0" d="M48.3,79.3H2c-1.1,0-2-0.9-2-2s0.9-2,2-2h44.3V4H2C0.9,4,0,3.1,0,2s0.9-2,2-2h46.3c1.1,0,2,0.9,2,2v75.3
	C50.3,78.5,49.4,79.3,48.3,79.3z"/>
<path class="st0" d="M31.7,21.3h-22c-1.1,0-2-0.9-2-2s0.9-2,2-2h22c1.1,0,2,0.9,2,2S32.8,21.3,31.7,21.3z"/>
<path class="st0" d="M31.7,41.5h-22c-1.1,0-2-0.9-2-2s0.9-2,2-2h22c1.1,0,2,0.9,2,2S32.8,41.5,31.7,41.5z"/>
<path class="st0" d="M31.7,61.7h-22c-1.1,0-2-0.9-2-2s0.9-2,2-2h22c1.1,0,2,0.9,2,2S32.8,61.7,31.7,61.7z"/>
</svg>
