<?xml version="1.0" encoding="utf-8"?>
<!-- Generator: Adobe Illustrator 21.0.0, SVG Export Plug-In . SVG Version: 6.00 Build 0)  -->
<svg version="1.1" id="Capa_1" xmlns="http://www.w3.org/2000/svg" xmlns:xlink="http://www.w3.org/1999/xlink" x="0px" y="0px"
	 viewBox="0 0 512 409.8" style="enable-background:new 0 0 512 409.8;" xml:space="preserve">
<g>
	<g>
		<path d="M256,153.7c-42.4,0-76.8,34.4-76.8,76.8s34.4,76.8,76.8,76.8s76.8-34.4,76.8-76.8C332.8,188.1,298.4,153.7,256,153.7z
			 M460.8,76.9h-61.4c-8.4,0-17.6-6.6-20.2-14.6l-15.9-47.7C360.6,6.6,351.5,0,343.1,0H169c-8.4,0-17.6,6.6-20.2,14.6l-15.9,47.7
			c-2.7,8-11.8,14.6-20.2,14.6H51.2C23,76.9,0,99.9,0,128.1v230.4c0,28.2,23,51.2,51.2,51.2h409.6c28.2,0,51.2-23,51.2-51.2V128.1
			C512,99.9,489,76.9,460.8,76.9z M256,358.5c-70.7,0-128-57.3-128-128s57.3-128,128-128s128,57.3,128,128S326.7,358.5,256,358.5z
			 M442.9,163.9c-9.9,0-17.9-8-17.9-17.9s8-17.9,17.9-17.9s17.9,8,17.9,17.9S452.8,163.9,442.9,163.9z"/>
	</g>
</g>
</svg>
